<svg width="200" height="200" viewBox="0 0 200 200" xmlns="http://www.w3.org/2000/svg">
  <g fill="none" stroke="rgba(255, 255, 255, 0.2)" stroke-width="2" stroke-linecap="round" stroke-linejoin="round">
    <g transform="translate(30,30) rotate(-15)">
      <circle cx="15" cy="15" r="10" />
      <path d="M15,25 Q15,35 10,35 Q5,35 5,25 T15,25" />
    </g>
    
    <g transform="translate(130,40) rotate(10)">
      <rect x="5" y="10" width="20" height="15" rx="5" />
      <path d="M5,10 Q2,5 8,8 Q15,0 22,8 Q28,5 25,12" />
      <circle cx="10" cy="17" r="1" fill="rgba(255, 255, 255, 0.2)" stroke="none" />
      <circle cx="20" cy="17" r="1" fill="rgba(255, 255, 255, 0.2)" stroke="none" />
    </g>
    
    <g transform="translate(40,130) rotate(20)">
      <path d="M5,5 L25,5 L20,25 L10,25 Z" />
      <path d="M10,18 Q15,13 20,18" />
    </g>
    
    <g transform="translate(140,140) rotate(-10)">
      <path d="M0,20 L10,0 L20,20 Z" />
      <circle cx="5" cy="18" r="1" />
      <circle cx="15" cy="12" r="1" />
      <circle cx="10" cy="18" r="1" />
    </g>
    
    <g transform="translate(85,85) rotate(5)">
      <rect x="5" y="10" width="15" height="10" rx="1" />
      <path d="M8,10 L8,7 L17,7 L17,10" />
      <path d="M0,15 L5,15" />
    </g>
  </g>
</svg>